inDegrees=yes
name=ik_S49_A04_T01
DataType=double
version=3
OpenSimVersion=4.3-2021-08-27-4bc7ad9
endheader
time	pelvis_tilt	pelvis_list	pelvis_rotation	pelvis_tx	pelvis_ty	pelvis_tz	hip_flexion_r	hip_adduction_r	hip_rotation_r	knee_angle_r	knee_angle_r_beta	ankle_angle_r	subtalar_angle_r	mtp_angle_r	hip_flexion_l	hip_adduction_l	hip_rotation_l	knee_angle_l	knee_angle_l_beta	ankle_angle_l	subtalar_angle_l	mtp_angle_l	lumbar_extension	lumbar_bending	lumbar_rotation	arm_flex_r	arm_add_r	arm_rot_r	elbow_flex_r	pro_sup_r	wrist_flex_r	wrist_dev_r	arm_flex_l	arm_add_l	arm_rot_l	elbow_flex_l	pro_sup_l	wrist_flex_l	wrist_dev_l
12.97999999999981	11.79505983875233	1.891636105164002	25.23895046988886	0	0.9399999999999999	0	-8.276347355032675	-4.247790673903338	1.883778016125725	5.714683700597891	0.09974004628548704	0	0	0	-10.14649425494149	-8.78972726346093	-13.85725272722497	3.396421529989329	0.05927873848393712	0	0	0	0	0	0	29.23678360291634	-29.23678360291634	4.2154086785052	74.28457313851578	85.78459155875757	0	0	29.23678360291634	-29.23678360291634	4.2154086785052	74.28457313851578	85.78459155861127	0	0
12.99999999999981	11.75990904417811	1.880319808664946	25.22828147854635	0	0.9399999999999999	0	-8.188017837820144	-4.23925286309671	1.85360836974751	5.894638783337548	0.1028808549849929	0	0	0	-10.07532983127431	-8.791107238315849	-13.864715833619	3.513689310539879	0.06132544736105038	0	0	0	0	0	0	29.27624575947634	-29.27624575947634	4.219154767862659	74.33621261176469	85.7808454695935	0	0	29.27624575947634	-29.27624575947634	4.219154767862659	74.33621261176469	85.78084546944788	0	0
13.01999999999981	11.81743995004069	1.882055284192639	25.15666285186543	0	0.9399999999999999	0	-8.22701255695277	-4.166656414302244	1.892582667893969	5.941835783994675	0.1037045980435257	0	0	0	-10.17647286352808	-8.805630315184958	-13.91716111159849	3.489516189922131	0.06090354681578895	0	0	0	0	0	0	29.30892674322357	-29.30892674322357	4.222214607751587	74.378346290952	85.77778562986208	0	0	29.30892674322357	-29.30892674322357	4.222214607751587	74.378346290952	85.77778562971706	0	0
13.03999999999981	11.82095591290653	1.866541280701962	25.09862172080365	0	0.9399999999999999	0	-8.156473089784843	-4.117337380362387	1.979762799941684	6.015266341737497	0.1049862030477137	0	0	0	-10.18179325356549	-8.806003048813009	-13.96768271801668	3.564154705496501	0.06220623466136279	0	0	0	0	0	0	29.34225901278063	-29.34225901278063	4.225457052097302	74.42313441667558	85.77454318568458	0	0	29.34225901278063	-29.34225901278063	4.225457052097302	74.42313441667558	85.77454318554018	0	0
13.05999999999981	11.73537605115582	1.853241829743327	25.09493463996572	0	0.9399999999999999	0	-7.933570702508821	-4.176773184978882	1.952592570756893	6.304811309453239	0.1100397160669341	0	0	0	-10.02540113583205	-8.797513494704939	-13.95506128734707	3.828313823144807	0.06681668101348878	0	0	0	0	0	0	29.37775215071561	-29.37775215071561	4.228857532045629	74.47005175649755	85.77114270591217	0	0	29.37775215071561	-29.37775215071561	4.228857532045629	74.47005175649755	85.7711427057684	0	0
13.07999999999981	11.71762006204669	1.892167099287274	25.08312695148128	0	0.9399999999999999	0	-7.830233399461426	-4.234975792104262	1.98417838900307	6.370046059813702	0.1111782772474407	0	0	0	-9.884308344829106	-8.85539625385637	-13.91142411014053	3.871282327552279	0.06756662289005685	0	0	0	0	0	0	29.37898641626424	-29.37898641626424	4.228978064574541	74.47171755578843	85.77102217338953	0	0	29.37898641626424	-29.37898641626424	4.228978064574541	74.47171755578843	85.77102217324575	0	0
13.09999999999981	11.57430653781796	1.920125283635669	25.10519391068994	0	0.9399999999999999	0	-7.573659661779805	-4.310779962334907	1.976768752311682	6.559509050280436	0.1144850302417599	0	0	0	-9.646834803248716	-8.826457217805869	-13.98412440535526	4.096836941631562	0.0715032935488055	0	0	0	0	0	0	29.38159898317608	-29.38159898317608	4.229234021373666	74.47525536005908	85.77076621660379	0	0	29.38159898317608	-29.38159898317608	4.229234021373666	74.47525536005908	85.77076621646002	0	0
13.11999999999981	11.54386440894289	1.9061883759138	25.09054704782026	0	0.9399999999999999	0	-7.39188269015131	-4.292730005509696	2.029461271577401	6.69452375259341	0.1168414813357213	0	0	0	-9.494264322626934	-8.875782641922036	-14.15204447172294	4.197577605229173	0.07326154981922782	0	0	0	0	0	0	29.38295889765572	-29.38295889765572	4.229367315310136	74.47709775386885	85.77063292267424	0	0	29.38295889765572	-29.38295889765572	4.229367315310136	74.47709775386885	85.77063292253051	0	0
13.13999999999981	11.46177780574715	1.894395249279413	25.10257102594165	0	0.9399999999999999	0	-7.100847755467065	-4.29303090072164	2.175306201871664	6.927095784496234	0.1209006290404789	0	0	0	-9.245951933774878	-8.876718060468486	-14.15517866308437	4.46763436190594	0.07797492939049458	0	0	0	0	0	0	29.38514447593701	-29.38514447593701	4.229581519621292	74.48005847182307	85.77041871837427	0	0	29.38514447593701	-29.38514447593701	4.229581519621292	74.48005847182307	85.77041871823059	0	0
13.15999999999981	11.33164373302901	1.861983836528589	25.10873104795078	0	0.9399999999999999	0	-6.706778716360753	-4.297668896746996	2.490186661736667	7.127880833499654	0.1244049892343667	0	0	0	-8.931785353311545	-8.856552175041248	-14.0651300134779	4.59320017942912	0.08016646633423245	0	0	0	0	0	0	29.38668856548484	-29.38668856548484	4.229732489980872	74.48214498370972	85.77026774802253	0	0	29.38668856548484	-29.38668856548484	4.229732489980872	74.48214498370972	85.77026774787888	0	0
13.17999999999981	11.15583654919304	1.829457191941108	25.11371529479764	0	0.9399999999999999	0	-6.511262334409509	-4.334883605179827	2.507697320850553	7.422129977987605	0.129540605626858	0	0	0	-8.263263494587449	-8.935159276955916	-13.79774778421839	5.254028719056801	0.0917001001418813	0	0	0	0	0	0	29.3902198455945	-29.3902198455945	4.230078233925556	74.4869236095013	85.76992200409579	0	0	29.3902198455945	-29.3902198455945	4.230078233925556	74.4869236095013	85.76992200395219	0	0
13.19999999999981	10.88331914455101	1.764323117131975	25.12343534881718	0	0.9399999999999999	0	-5.674537131788564	-4.440723495277356	2.743125025356222	7.876705259847069	0.1374744409934869	0	0	0	-7.972299974574273	-8.870704808314448	-13.7674058952034	5.312839747841865	0.09272654623066584	0	0	0	0	0	0	29.39488373201563	-29.39488373201563	4.230534211757042	74.4932253342585	85.76946602628799	0	0	29.39488373201563	-29.39488373201563	4.230534211757042	74.4932253342585	85.76946602614449	0	0
13.21999999999981	10.74574458831977	1.751794009384704	25.14590467256775	0	0.9399999999999999	0	-5.190001285197053	-4.522225180745691	2.694698458600338	8.338238097963988	0.1455297086247011	0	0	0	-7.836154377524077	-8.824062113972474	-13.70696524770112	5.389620306236754	0.09406661977617643	0	0	0	0	0	0	29.39839175619889	-29.39839175619889	4.230874965177509	74.49793353980205	85.7691252728852	0	0	29.39839175619889	-29.39839175619889	4.230874965177509	74.49793353980205	85.76912527274179	0	0
13.23999999999981	10.41098318262614	1.672201623899709	25.19023307808529	0	0.9399999999999999	0	-4.516207432245592	-4.618429529113628	2.711908363322869	8.650527388617984	0.1509801849653309	0	0	0	-6.871223271002561	-8.910828679280598	-13.60945282469124	6.049112646970953	0.1055769325136725	0	0	0	0	0	0	29.40152320161637	-29.40152320161637	4.231180654610551	74.50215799171445	85.76881958346806	0	0	29.40152320161637	-29.40152320161637	4.231180654610551	74.50215799171445	85.76881958332469	0	0
